Coordinates
version=1
nRows=11
nColumns=40
inDegrees=yes

Units are S.I. units (second, meters, Newtons, ...)
If the header above contains a line with 'inDegrees', this indicates whether rotational values are in degrees (yes) or radians (no).

endheader
time	pelvis_tilt	pelvis_list	pelvis_rotation	pelvis_tx	pelvis_ty	pelvis_tz	hip_flexion_r	hip_adduction_r	hip_rotation_r	knee_angle_r	knee_angle_r_beta	ankle_angle_r	subtalar_angle_r	mtp_angle_r	hip_flexion_l	hip_adduction_l	hip_rotation_l	knee_angle_l	knee_angle_l_beta	ankle_angle_l	subtalar_angle_l	mtp_angle_l	lumbar_extension	lumbar_bending	lumbar_rotation	arm_flex_r	arm_add_r	arm_rot_r	elbow_flex_r	pro_sup_r	wrist_flex_r	wrist_dev_r	arm_flex_l	arm_add_l	arm_rot_l	elbow_flex_l	pro_sup_l	wrist_flex_l	wrist_dev_l
      0.32800000	     22.40565539	      1.37244190	      3.04673968	      0.56357920	      0.97632980	     -0.30827204	    -12.32764422	      2.38532599	     -5.89688755	     19.43888123	      0.33927248	     -4.97551303	      0.00000000	      0.00000000	    -15.09626861	     -3.50772824	      1.56113005	     56.76868886	      0.99080053	    -21.47124454	      0.00000000	      0.00000000	    -34.58511505	      1.82922706	     -3.41448771	      3.15678445	    -18.06911101	     15.21449654	     44.14253539	     73.13275248	      0.00000000	      0.00000000	      0.61638771	    -23.75671852	     21.91499635	     45.39520498	     78.94079827	      0.00000000	      0.00000000
      0.33200000	     22.41129945	      1.40623048	      2.96280355	      0.56910443	      0.97723161	     -0.30796055	    -12.94720319	      2.38226040	     -5.99041988	     18.97153457	      0.33111574	     -4.90345438	      0.00000000	      0.00000000	    -14.50884192	     -3.42098027	      1.60385776	     56.77679221	      0.99094196	    -20.53410913	      0.00000000	      0.00000000	    -34.55919650	      1.71072482	     -3.27308409	      3.26160671	    -18.07670900	     15.35020646	     44.37366364	     73.18779499	      0.00000000	      0.00000000	      0.43873697	    -23.78376831	     21.92310657	     45.31738789	     79.04134993	      0.00000000	      0.00000000
      0.33600000	     22.52480877	      1.41006640	      2.89684237	      0.57485715	      0.97823421	     -0.30771300	    -13.78792572	      2.43918717	     -6.04856917	     18.29682598	      0.31933986	     -5.02680621	      0.00000000	      0.00000000	    -14.08171779	     -3.38193256	      1.62306891	     56.74159886	      0.99032772	    -19.60561285	      0.00000000	      0.00000000	    -34.63718082	      1.65322980	     -3.18442486	      3.35945613	    -18.05457370	     15.43068427	     44.64862727	     73.23102374	      0.00000000	      0.00000000	      0.23059750	    -23.73031373	     21.70478704	     45.16098243	     79.21917762	      0.00000000	      0.00000000
      0.34000000	     22.54711444	      1.38149392	      2.73394394	      0.58001826	      0.97911623	     -0.30734223	    -14.21470518	      2.43041721	     -6.18609040	     18.19910361	      0.31763428	     -4.98979398	      0.00000000	      0.00000000	    -13.49123921	     -3.32169182	      1.61212314	     56.58823569	      0.98765103	    -19.39039681	      0.00000000	      0.00000000	    -34.66481943	      1.56225378	     -2.97974330	      3.57171127	    -17.98220254	     15.41537512	     44.80649530	     73.24073650	      0.00000000	      0.00000000	      0.06364785	    -23.77871822	     21.70640869	     45.11359013	     79.23521912	      0.00000000	      0.00000000
      0.34400000	     22.84831966	      1.37845134	      2.82659581	      0.58685767	      0.98031858	     -0.30711436	    -15.67036791	      2.63285239	     -6.12091960	     16.79902607	      0.29319832	     -5.40421482	      0.00000000	      0.00000000	    -13.43095743	     -3.40746000	      1.65092653	     56.37746387	      0.98397237	    -17.85553575	      0.00000000	      0.00000000	    -34.81502658	      1.57550579	     -3.05574578	      3.53632722	    -17.98560161	     15.63964673	     45.09856840	     73.54388871	      0.00000000	      0.00000000	     -0.49077549	    -23.77842992	     21.17465678	     45.30526074	     79.85952893	      0.00000000	      0.00000000
      0.34800000	     22.80248903	      1.47394014	      2.71160902	      0.59249414	      0.98095962	     -0.30687515	    -16.23237972	      2.54388793	     -6.20251146	     16.34926168	      0.28534845	     -5.32949822	      0.00000000	      0.00000000	    -12.84236702	     -3.19672543	      1.71855315	     56.19560980	      0.98079842	    -17.11102527	      0.00000000	      0.00000000	    -34.71919553	      1.39284876	     -2.94875689	      3.66324134	    -17.92470986	     15.68005831	     45.26739559	     73.61413569	      0.00000000	      0.00000000	     -0.66274148	    -23.75149423	     21.10308814	     45.11654824	     79.99330943	      0.00000000	      0.00000000
      0.35200000	     22.98882392	      1.49196732	      2.75355344	      0.59838149	      0.98187544	     -0.30659575	    -17.16668772	      2.62537438	     -6.48272317	     15.64790558	      0.27310747	     -5.51108972	      0.00000000	      0.00000000	    -12.54211176	     -3.17669066	      1.82737744	     55.93926022	      0.97632427	    -16.32433792	      0.00000000	      0.00000000	    -34.85320343	      1.36161466	     -2.94251704	      3.69657114	    -17.85328298	     15.59633755	     45.57015819	     73.87533540	      0.00000000	      0.00000000	     -0.99278054	    -23.79370035	     20.79897307	     45.18753422	     80.27985586	      0.00000000	      0.00000000
      0.35600000	     22.98957888	      1.48563105	      2.61996092	      0.60325919	      0.98258620	     -0.30632965	    -17.54424128	      2.62043405	     -6.64400644	     15.54406604	      0.27129513	     -5.45270876	      0.00000000	      0.00000000	    -11.89889163	     -3.09563904	      1.79020530	     55.72088399	      0.97251289	    -16.10727176	      0.00000000	      0.00000000	    -34.90844885	      1.27393473	     -2.77170734	      3.94536322	    -17.79684295	     15.60588364	     45.74051691	     73.89362961	      0.00000000	      0.00000000	     -1.10081564	    -23.81584330	     20.81629678	     45.15782019	     80.29191930	      0.00000000	      0.00000000
      0.36000000	     23.00254195	      1.60192136	      2.68570189	      0.60928419	      0.98325627	     -0.30640077	    -18.42151743	      2.60821088	     -6.62540819	     14.62922810	      0.25532820	     -5.71542182	      0.00000000	      0.00000000	    -11.47101065	     -2.86515227	      2.05599544	     55.41566159	      0.96718575	    -15.35488428	      0.00000000	      0.00000000	    -34.83183597	      1.17099291	     -2.84507965	      3.94121386	    -17.77387607	     15.68187380	     46.02041362	     74.22742423	      0.00000000	      0.00000000	     -1.38566720	    -23.78762014	     20.56088707	     45.08094950	     80.62945896	      0.00000000	      0.00000000
      0.36400000	     23.05708474	      1.68045222	      2.62791059	      0.61498456	      0.98382441	     -0.30614469	    -19.12399874	      2.57980193	     -6.78537786	     14.09058678	      0.24592713	     -5.77562126	      0.00000000	      0.00000000	    -11.02454434	     -2.69964421	      2.14504735	     55.05716949	      0.96092888	    -14.82070643	      0.00000000	      0.00000000	    -34.84677537	      1.02492081	     -2.80331776	      3.99633375	    -17.76975264	     15.81214902	     46.36925040	     74.34375881	      0.00000000	      0.00000000	     -1.72585588	    -23.83461035	     20.12590560	     45.20585253	     80.52946416	      0.00000000	      0.00000000
      0.36800000	     23.03962713	      1.66032567	      2.52894911	      0.61992330	      0.98433205	     -0.30586098	    -19.48131845	      2.59939817	     -6.97621881	     13.98767600	      0.24413100	     -5.71959273	      0.00000000	      0.00000000	    -10.36753829	     -2.65752426	      2.10235373	     54.77405095	      0.95598753	    -14.61885424	      0.00000000	      0.00000000	    -34.87418987	      0.96443690	     -2.68357886	      4.23966119	    -17.72454870	     15.80401290	     46.55383726	     74.35384065	      0.00000000	      0.00000000	     -1.86590034	    -23.85216524	     20.18923110	     45.21114726	     80.55754158	      0.00000000	      0.00000000
